<?xml version="1.0" encoding="utf-8"?>
<!-- Generator: Adobe Illustrator 24.2.3, SVG Export Plug-In . SVG Version: 6.00 Build 0)  -->
<svg version="1.1" id="Layer_1" xmlns="http://www.w3.org/2000/svg" xmlns:xlink="http://www.w3.org/1999/xlink" x="0px" y="0px"
	 viewBox="0 0 400 400" style="enable-background:new 0 0 400 400;" xml:space="preserve">
<style type="text/css">
	.st0{fill:#FFFFFF;stroke:#333333;stroke-miterlimit:10;}
	.st1{fill:#BFAD86;}
	.st2{fill:#689BA8;}
	.st3{fill:#1E4A26;}
	.st4{fill:#A94788;}
	.st5{fill:#DEA429;}
	.st6{fill:#D7E046;}
	.st7{fill:#FFFFFF;}
	.st8{fill:#63817E;}
	.st9{font-family:'MrEavesModOT-Bold';}
	.st10{font-size:14.947px;}
	.st11{font-family:'MrsEavesOT-Italic';}
	.st12{font-size:8.4077px;}
	.st13{fill:#AA468A;}
	.st14{fill:none;}
	.st15{font-family:'MrEavesModOT-Light';}
	.st16{font-size:21px;}
</style>
<rect y="0" class="st0" width="400" height="400"/>
<path d="M151.8,350.5v-1h1v1H151.8z"/>
<g>
	<rect x="117.8" y="47" class="st1" width="168.5" height="168.5"/>
	<g>
		<g>
			<g>
				<path class="st2" d="M202.6,120.2l-0.1-2.3c0-0.1,0.2-0.2,0.2,0C202.7,117.9,202.6,120.2,202.6,120.2z"/>
				<path class="st2" d="M202.3,120.4c-0.4-0.1-0.7-0.3-1.1-0.4c-0.1,0-0.3-0.1-0.3-0.1c0,0,0-0.1,0-0.1c0,0,0.1-0.1,0.1-0.1
					c0.1,0,0.2,0.1,0.3,0.1c0.1,0.1,0.2,0.1,0.3,0.2c0.2,0.1,0.4,0.2,0.6,0.3C202.2,120.4,202.2,120.4,202.3,120.4z"/>
				<path class="st2" d="M202.3,120.5c-0.1,0-0.2,0-0.3,0c-0.2,0-0.5-0.1-0.7-0.1c-0.1,0-0.2,0-0.4-0.1c-0.1,0-0.2-0.1-0.1-0.2
					c0-0.1,0.3,0,0.4,0c0.2,0.1,0.4,0.1,0.6,0.2C201.9,120.4,202.1,120.4,202.3,120.5z"/>
				<path class="st2" d="M202.4,120.8c-0.1,0.1-0.2,0.2-0.3,0.3c-0.2,0.2-0.3,0.4-0.5,0.6c-0.1,0.1-0.2,0.3-0.3,0.4
					c0,0-0.2,0.1-0.2,0.1c-0.1-0.1,0.1-0.3,0.2-0.3c0.1-0.1,0.2-0.1,0.2-0.2c0.2-0.2,0.4-0.4,0.6-0.5
					C202.2,121,202.2,121,202.4,120.8C202.3,120.9,202.4,120.9,202.4,120.8z"/>
				<path class="st2" d="M202.3,120.6c-0.1,0-0.2,0.1-0.3,0.1c-0.2,0.1-0.4,0.1-0.6,0.2c-0.1,0-0.3,0.1-0.4,0.1
					c-0.1,0-0.1,0-0.1-0.1c0-0.2,0.1-0.1,0.2-0.1c0.1,0,0.2,0,0.3,0c0.2,0,0.4,0,0.5-0.1C202,120.7,202.2,120.7,202.3,120.6z"/>
				<path class="st2" d="M202.3,120.8c-0.1,0.1-0.2,0.1-0.3,0.2c-0.2,0.1-0.3,0.3-0.5,0.4c-0.1,0.1-0.2,0.2-0.3,0.3
					c-0.1,0.1-0.2,0.1-0.2,0c-0.1-0.1,0.1-0.2,0.2-0.3c0.1,0,0.2-0.1,0.2-0.1c0.2-0.1,0.4-0.2,0.6-0.4
					C202.1,120.9,202.1,120.9,202.3,120.8C202.2,120.8,202.3,120.8,202.3,120.8z"/>
				<path class="st2" d="M202.3,120.7c-0.1,0.1-0.2,0.1-0.3,0.2c-0.2,0.1-0.4,0.2-0.6,0.3c-0.1,0.1-0.3,0.1-0.4,0.2
					c-0.1,0-0.1,0-0.2-0.1c0-0.1,0.1-0.2,0.2-0.2c0.1,0,0.2-0.1,0.3-0.1c0.2-0.1,0.5-0.1,0.7-0.2
					C202.1,120.8,202.1,120.8,202.3,120.7C202.3,120.7,202.3,120.7,202.3,120.7z"/>
				<path class="st2" d="M202.4,120.9c-0.1,0.1-0.1,0.2-0.2,0.4c-0.1,0.2-0.3,0.5-0.4,0.7c-0.1,0.2-0.2,0.3-0.3,0.5
					c0,0.1-0.1,0.1-0.2,0.1c-0.1-0.1,0-0.2,0.1-0.3c0.1-0.1,0.1-0.2,0.2-0.3c0.2-0.2,0.3-0.4,0.5-0.7
					C202.2,121.1,202.3,121,202.4,120.9C202.4,120.9,202.4,120.9,202.4,120.9z"/>
				<path class="st2" d="M202.3,120.6c-0.3,0-0.5,0-0.8,0.1c-0.1,0-0.3,0-0.4,0c-0.1,0-0.3,0.1-0.3-0.1c0-0.1,0-0.1,0.1-0.1
					c0.2,0,0.4,0,0.6,0C201.8,120.5,202,120.5,202.3,120.6C202.3,120.6,202.3,120.6,202.3,120.6z"/>
				<path class="st2" d="M202.4,120.4c-0.4-0.3-0.9-0.5-1.3-0.8c0,0,0,0,0,0c0,0,0,0-0.1,0c0,0,0-0.1,0-0.2c0.1-0.1,0.2,0.1,0.3,0.2
					c0.1,0.1,0.2,0.2,0.3,0.2C201.9,119.9,202.1,120.2,202.4,120.4z"/>
				<path class="st2" d="M202.4,120.3c-0.4-0.5-0.7-1-1.1-1.6c0,0-0.1-0.1,0-0.2c0-0.1,0.1-0.1,0.2,0c0.1,0,0.1,0.1,0.1,0.2
					c0,0.1,0.1,0.1,0.1,0.2c0.1,0.1,0.2,0.3,0.2,0.4c0.2,0.3,0.3,0.6,0.5,0.8C202.4,120.2,202.4,120.2,202.4,120.3z"/>
				<path class="st2" d="M202.4,120.3c-0.2-0.2-0.5-0.5-0.7-0.7c-0.1-0.1-0.2-0.2-0.3-0.3c-0.1-0.1-0.3-0.2-0.2-0.3
					c0,0,0-0.1,0.1-0.1c0,0,0.1,0,0.1,0c0.1,0.1,0.1,0.2,0.2,0.2c0.1,0.1,0.1,0.2,0.2,0.3c0.2,0.2,0.3,0.4,0.5,0.6
					C202.2,120,202.3,120.2,202.4,120.3z"/>
				<path class="st2" d="M202.5,120.3c-0.1-0.3-0.3-0.7-0.4-1c-0.1-0.2-0.1-0.3-0.2-0.5c0-0.1-0.1-0.1-0.1-0.2
					c0-0.1-0.1-0.2-0.1-0.3c0-0.1,0-0.1,0.1-0.1c0.1,0,0.1,0.1,0.1,0.1c0.2,0.5,0.4,1.1,0.5,1.6C202.4,120,202.5,120.2,202.5,120.3z
					"/>
				<path class="st2" d="M202.9,120.8l1.2,1.1c0.1,0.1,0,0.2-0.1,0.2C204,122,202.9,120.8,202.9,120.8z"/>
				<path class="st2" d="M203,120.7l1.4,0.8c0.1,0.1,0,0.3-0.1,0.2C204.2,121.7,203,120.7,203,120.7z"/>
				<path class="st2" d="M202.7,120.1l0.3-2c0-0.1,0.2-0.1,0.2,0C203.2,118.2,202.7,120.1,202.7,120.1z"/>
				<path class="st2" d="M203,120.7l1.3,0.5c0.1,0.1,0,0.2-0.1,0.2C204.3,121.4,203,120.7,203,120.7z"/>
				<path class="st2" d="M202.8,120.1l0.7-1.9c0-0.1,0.3-0.1,0.2,0.1C203.7,118.4,202.8,120.1,202.8,120.1z"/>
				<path class="st2" d="M202.9,120.3l1.2-1.4c0.1-0.1,0.2,0,0.2,0.2C204.2,119.1,202.9,120.3,202.9,120.3z"/>
				<path class="st2" d="M203,120.5c0.3,0,0.6,0,1,0c0.1,0,0.2,0,0.3,0c0.1,0,0.1,0,0.2,0c0,0,0,0.1,0,0.1c-0.1,0.1-0.2,0-0.2,0
					c-0.1,0-0.1,0-0.2,0c-0.2,0-0.3,0-0.5-0.1c-0.1,0-0.2,0-0.4,0C203.1,120.5,203.1,120.5,203,120.5z"/>
				<path class="st2" d="M202.9,120.4l1.3-1c0.1-0.1,0.2,0.1,0.1,0.2C204.3,119.6,202.9,120.4,202.9,120.4z"/>
				<path class="st2" d="M203,120.4l1.3-0.6c0.1,0,0.2,0.1,0.1,0.2C204.3,120,203,120.4,203,120.4z"/>
				<path class="st2" d="M203,120.4l1.4-0.4c0.1,0,0.2,0.2,0,0.2C204.4,120.3,203,120.4,203,120.4z"/>
				<path class="st2" d="M202.8,120.2l1-1.6c0.1-0.1,0.3,0,0.2,0.1C204,118.8,202.8,120.2,202.8,120.2z"/>
				<path class="st2" d="M203,120.6l1.4,0.2c0.1,0.1,0,0.2-0.1,0.2C204.3,121,203,120.6,203,120.6z"/>
				<path class="st2" d="M202.5,120.9c-0.1,0.1-0.1,0.3-0.2,0.4c-0.1,0.3-0.2,0.5-0.3,0.8c-0.1,0.2-0.1,0.4-0.2,0.6
					c0,0.1-0.1,0.1-0.2,0.1c-0.1-0.1,0-0.2,0-0.3c0.1-0.1,0.1-0.2,0.2-0.3c0.1-0.3,0.3-0.5,0.4-0.8c0.1-0.1,0.1-0.2,0.2-0.3
					C202.5,121,202.5,120.9,202.5,120.9z"/>
				<path class="st2" d="M202.6,121c0,0.1,0,0.3-0.1,0.4c0,0.3-0.1,0.6-0.1,0.9c0,0.2,0,0.4-0.1,0.6c0,0.1-0.1,0.1-0.1,0.1
					c-0.1,0-0.1-0.2,0-0.3c0-0.1,0.1-0.2,0.1-0.4c0.1-0.3,0.2-0.6,0.2-0.9c0-0.1,0.1-0.2,0.1-0.3C202.5,121.1,202.6,121.1,202.6,121
					z"/>
				<path class="st2" d="M202.7,120.9c0,0.2,0.1,0.3,0.1,0.5c0.1,0.3,0.1,0.6,0.2,0.9c0,0.2,0.1,0.4,0.1,0.6c0,0.1,0,0.2-0.1,0.2
					c-0.2,0-0.1-0.2-0.2-0.3c0-0.1,0-0.3,0-0.4c0-0.3-0.1-0.6-0.1-1c0-0.1,0-0.2,0-0.3C202.7,121,202.7,121,202.7,120.9z"/>
				<path class="st2" d="M202.9,120.9c0.1,0.1,0.2,0.2,0.2,0.3c0.2,0.2,0.3,0.4,0.5,0.6c0.1,0.1,0.2,0.3,0.3,0.4c0,0.1,0,0.2,0,0.2
					c-0.1,0.1-0.2-0.1-0.2-0.2c-0.1-0.1-0.1-0.2-0.2-0.3c-0.1-0.2-0.3-0.5-0.4-0.7c0-0.1-0.1-0.2-0.1-0.3
					C202.9,120.9,202.9,120.9,202.9,120.9z"/>
				<path class="st2" d="M202.6,120.9l0.1,2.3c0,0.1-0.2,0.2-0.2,0C202.5,123.2,202.6,120.9,202.6,120.9z"/>
				<ellipse class="st2" cx="202.6" cy="120.5" rx="0.1" ry="0.2"/>
				<path class="st2" d="M202.6,120.2l-0.5-2.1c0-0.1,0.2-0.2,0.2,0C202.3,118.1,202.6,120.2,202.6,120.2z"/>
				<path class="st2" d="M202.8,120.9c0.1,0.1,0.1,0.3,0.2,0.4c0.1,0.3,0.2,0.5,0.4,0.8c0.1,0.2,0.2,0.4,0.3,0.5
					c0,0.1,0,0.2-0.1,0.2c-0.1,0-0.2-0.2-0.2-0.3c0-0.1-0.1-0.2-0.1-0.3c-0.1-0.3-0.2-0.6-0.3-0.9c0-0.1-0.1-0.2-0.1-0.3
					C202.9,121,202.8,121,202.8,120.9z"/>
			</g>
			<g>
				<path class="st3" d="M202.6,143.3l-0.1-2.3c0-0.1,0.2-0.2,0.2,0C202.7,141.1,202.6,143.3,202.6,143.3z"/>
				<path class="st3" d="M202.3,143.5c-0.4-0.1-0.7-0.3-1.1-0.4c-0.1,0-0.2-0.1-0.3-0.1c0,0,0-0.1,0-0.1c0,0,0.1-0.1,0.1-0.1
					c0.1,0,0.2,0.1,0.3,0.1c0.1,0.1,0.2,0.1,0.3,0.2c0.2,0.1,0.4,0.2,0.6,0.3C202.2,143.4,202.2,143.5,202.3,143.5z"/>
				<path class="st3" d="M202.3,143.6c-0.1,0-0.2,0-0.3,0c-0.2,0-0.4-0.1-0.7-0.1c-0.1,0-0.2,0-0.3-0.1c-0.1,0-0.2-0.1-0.1-0.1
					c0-0.1,0.3,0,0.4,0c0.2,0.1,0.4,0.1,0.6,0.2C201.9,143.4,202.1,143.5,202.3,143.6z"/>
				<path class="st3" d="M202.4,143.9c-0.1,0.1-0.2,0.2-0.2,0.3c-0.2,0.2-0.3,0.4-0.5,0.5c-0.1,0.1-0.2,0.3-0.3,0.4
					c0,0-0.2,0.1-0.2,0.1c-0.1-0.1,0.1-0.3,0.2-0.3c0.1-0.1,0.2-0.1,0.2-0.2c0.2-0.2,0.4-0.4,0.6-0.5
					C202.2,144.1,202.2,144,202.4,143.9C202.3,144,202.4,143.9,202.4,143.9z"/>
				<path class="st3" d="M202.3,143.7c-0.1,0-0.2,0.1-0.3,0.1c-0.2,0.1-0.4,0.1-0.6,0.2c-0.1,0-0.3,0.1-0.4,0.1
					c-0.1,0-0.1,0-0.1-0.1c0-0.2,0.1-0.1,0.2-0.1c0.1,0,0.2,0,0.3,0c0.2,0,0.4,0,0.5-0.1C202,143.8,202.2,143.8,202.3,143.7z"/>
				<path class="st3" d="M202.3,143.9c-0.1,0.1-0.2,0.1-0.3,0.2c-0.2,0.1-0.3,0.3-0.5,0.4c-0.1,0.1-0.2,0.2-0.3,0.3
					c-0.1,0.1-0.2,0.1-0.2,0c-0.1-0.1,0.1-0.2,0.2-0.3c0.1,0,0.2-0.1,0.2-0.1c0.2-0.1,0.4-0.2,0.6-0.3
					C202.1,144,202.2,143.9,202.3,143.9C202.2,143.9,202.3,143.9,202.3,143.9z"/>
				<path class="st3" d="M202.3,143.8c-0.1,0-0.2,0.1-0.3,0.1c-0.2,0.1-0.4,0.2-0.6,0.3c-0.1,0.1-0.3,0.1-0.4,0.2
					c-0.1,0-0.1,0-0.2-0.1c0-0.1,0.1-0.2,0.2-0.2c0.1,0,0.2-0.1,0.3-0.1c0.2-0.1,0.4-0.1,0.7-0.2
					C202.1,143.9,202.2,143.8,202.3,143.8C202.3,143.8,202.3,143.8,202.3,143.8z"/>
				<path class="st3" d="M202.4,143.9c-0.1,0.1-0.1,0.2-0.2,0.3c-0.1,0.2-0.3,0.4-0.4,0.7c-0.1,0.2-0.2,0.3-0.3,0.5
					c0,0.1-0.1,0.1-0.2,0.1c-0.1-0.1,0-0.2,0.1-0.3c0.1-0.1,0.1-0.2,0.2-0.3c0.2-0.2,0.3-0.4,0.5-0.7
					C202.2,144.2,202.3,144.1,202.4,143.9C202.4,144,202.4,144,202.4,143.9z"/>
				<path class="st3" d="M202.3,143.6c-0.3,0-0.5,0-0.8,0.1c-0.1,0-0.3,0-0.4,0c-0.1,0-0.3,0.1-0.3-0.1c0-0.1,0-0.1,0.1-0.1
					c0.2,0,0.4,0,0.6,0C201.8,143.6,202,143.6,202.3,143.6C202.3,143.6,202.3,143.6,202.3,143.6z"/>
				<path class="st3" d="M202.4,143.5c-0.4-0.3-0.8-0.5-1.3-0.8c0,0,0,0,0,0c0,0,0,0-0.1,0c0,0,0-0.1,0-0.2c0.1-0.1,0.2,0.1,0.3,0.2
					c0.1,0.1,0.2,0.1,0.3,0.2C201.9,143,202.1,143.2,202.4,143.5z"/>
				<path class="st3" d="M202.4,143.3c-0.4-0.5-0.7-1-1.1-1.5c0,0-0.1-0.1,0-0.2c0-0.1,0.1-0.1,0.2,0c0,0,0.1,0.1,0.1,0.2
					c0,0.1,0.1,0.1,0.1,0.2c0.1,0.1,0.2,0.3,0.2,0.4c0.2,0.3,0.3,0.5,0.5,0.8C202.4,143.3,202.4,143.3,202.4,143.3z"/>
				<path class="st3" d="M202.4,143.4c-0.2-0.2-0.5-0.5-0.7-0.7c-0.1-0.1-0.2-0.2-0.3-0.3c-0.1-0.1-0.3-0.2-0.2-0.3
					c0,0,0-0.1,0.1-0.1c0,0,0.1,0,0.1,0c0.1,0.1,0.1,0.1,0.2,0.2c0.1,0.1,0.1,0.2,0.2,0.2c0.1,0.2,0.3,0.4,0.4,0.6
					C202.2,143.1,202.3,143.3,202.4,143.4z"/>
				<path class="st3" d="M202.5,143.3c-0.1-0.3-0.3-0.6-0.4-1c-0.1-0.2-0.1-0.3-0.2-0.5c0-0.1-0.1-0.1-0.1-0.2
					c0-0.1-0.1-0.2-0.1-0.3c0-0.1,0-0.1,0.1-0.1c0.1,0,0.1,0.1,0.1,0.1c0.2,0.5,0.3,1,0.5,1.6C202.4,143.1,202.5,143.2,202.5,143.3z
					"/>
				<path class="st3" d="M202.9,143.8l1.2,1.1c0.1,0.1,0,0.2-0.1,0.2C203.9,145.1,202.9,143.8,202.9,143.8z"/>
				<path class="st3" d="M203,143.8l1.3,0.8c0.1,0.1,0,0.3-0.1,0.2C204.1,144.8,203,143.8,203,143.8z"/>
				<path class="st3" d="M202.7,143.2l0.3-2c0-0.1,0.2-0.1,0.2,0C203.2,141.3,202.7,143.2,202.7,143.2z"/>
				<path class="st3" d="M203,143.8l1.3,0.5c0.1,0.1,0,0.2-0.1,0.2C204.3,144.4,203,143.8,203,143.8z"/>
				<path class="st3" d="M202.8,143.2l0.7-1.8c0-0.1,0.3-0.1,0.2,0.1C203.6,141.5,202.8,143.2,202.8,143.2z"/>
				<path class="st3" d="M202.9,143.4l1.2-1.4c0.1-0.1,0.2,0,0.2,0.2C204.2,142.2,202.9,143.4,202.9,143.4z"/>
				<path class="st3" d="M203,143.6c0.3,0,0.6,0,0.9,0c0.1,0,0.2,0,0.3,0c0.1,0,0.1,0,0.2,0c0,0,0,0.1,0,0.1c-0.1,0.1-0.2,0-0.2,0
					c-0.1,0-0.1,0-0.2,0c-0.2,0-0.3,0-0.5-0.1c-0.1,0-0.2,0-0.3,0C203.1,143.6,203.1,143.6,203,143.6z"/>
				<path class="st3" d="M202.9,143.4l1.3-1c0.1-0.1,0.2,0.1,0.1,0.2C204.3,142.7,202.9,143.4,202.9,143.4z"/>
				<path class="st3" d="M203,143.5l1.3-0.6c0.1,0,0.2,0.1,0.1,0.2C204.3,143.1,203,143.5,203,143.5z"/>
				<path class="st3" d="M203,143.5l1.4-0.4c0.1,0,0.2,0.2,0,0.2C204.4,143.4,203,143.5,203,143.5z"/>
				<path class="st3" d="M202.8,143.3l1-1.5c0.1-0.1,0.2,0,0.2,0.1C203.9,141.9,202.8,143.3,202.8,143.3z"/>
				<path class="st3" d="M203,143.7l1.4,0.2c0.1,0.1,0,0.2-0.1,0.2C204.3,144.1,203,143.7,203,143.7z"/>
				<path class="st3" d="M202.5,144c-0.1,0.1-0.1,0.3-0.2,0.4c-0.1,0.3-0.2,0.5-0.3,0.8c-0.1,0.2-0.1,0.4-0.2,0.6
					c0,0.1-0.1,0.1-0.2,0.1c-0.1-0.1,0-0.2,0-0.3c0.1-0.1,0.1-0.2,0.2-0.3c0.1-0.3,0.3-0.5,0.4-0.8c0-0.1,0.1-0.2,0.1-0.3
					C202.5,144,202.5,144,202.5,144z"/>
				<path class="st3" d="M202.6,144.1c0,0.1,0,0.3-0.1,0.4c0,0.3-0.1,0.6-0.1,0.8c0,0.2,0,0.4-0.1,0.6c0,0.1-0.1,0.1-0.1,0.1
					c-0.1,0-0.1-0.2,0-0.3c0-0.1,0.1-0.2,0.1-0.3c0.1-0.3,0.2-0.6,0.2-0.9c0-0.1,0.1-0.2,0.1-0.3
					C202.5,144.2,202.6,144.1,202.6,144.1z"/>
				<path class="st3" d="M202.7,144c0,0.1,0.1,0.3,0.1,0.4c0.1,0.3,0.1,0.6,0.2,0.9c0,0.2,0.1,0.4,0.1,0.6c0,0.1,0,0.2-0.1,0.2
					c-0.2,0-0.1-0.2-0.2-0.3c0-0.1,0-0.3,0-0.4c0-0.3-0.1-0.6-0.1-1c0-0.1,0-0.2,0-0.3C202.7,144.1,202.7,144,202.7,144z"/>
				<path class="st3" d="M202.9,143.9c0.1,0.1,0.2,0.2,0.2,0.3c0.2,0.2,0.3,0.4,0.5,0.6c0.1,0.1,0.2,0.3,0.3,0.4c0,0.1,0,0.2,0,0.2
					c-0.1,0.1-0.2-0.1-0.2-0.2c-0.1-0.1-0.1-0.2-0.2-0.3c-0.1-0.2-0.3-0.5-0.4-0.7c0-0.1-0.1-0.2-0.1-0.3
					C202.9,144,202.9,143.9,202.9,143.9z"/>
				<path class="st3" d="M202.6,144l0.1,2.3c0,0.1-0.2,0.2-0.2,0C202.5,146.2,202.6,144,202.6,144z"/>
				<ellipse class="st3" cx="202.6" cy="143.6" rx="0.1" ry="0.2"/>
				<path class="st3" d="M202.6,143.2l-0.5-2c0-0.1,0.2-0.2,0.2,0C202.3,141.2,202.6,143.2,202.6,143.2z"/>
				<path class="st3" d="M202.8,144c0.1,0.1,0.1,0.3,0.2,0.4c0.1,0.3,0.2,0.5,0.4,0.8c0.1,0.2,0.2,0.4,0.2,0.5c0,0.1,0,0.2-0.1,0.2
					c-0.1,0-0.2-0.2-0.2-0.3c0-0.1-0.1-0.2-0.1-0.3c-0.1-0.3-0.2-0.6-0.3-0.9c0-0.1-0.1-0.2-0.1-0.3
					C202.9,144.1,202.8,144,202.8,144z"/>
			</g>
			<g>
				<path class="st4" d="M202.6,152.1l-0.1-2.9c0-0.2,0.3-0.2,0.3,0C202.8,149.2,202.6,152.1,202.6,152.1z"/>
				<path class="st4" d="M202.2,152.3c-0.5-0.2-0.9-0.3-1.4-0.5c-0.1,0-0.3-0.1-0.4-0.2c0,0,0-0.1,0-0.2c0,0,0.1-0.1,0.1-0.1
					c0.1,0,0.3,0.1,0.4,0.2c0.1,0.1,0.3,0.1,0.4,0.2c0.3,0.1,0.5,0.3,0.8,0.4C202.1,152.3,202.1,152.3,202.2,152.3z"/>
				<path class="st4" d="M202.2,152.4c-0.1,0-0.3,0-0.4-0.1c-0.3,0-0.6-0.1-0.9-0.1c-0.1,0-0.3,0-0.4-0.1c-0.1,0-0.2-0.1-0.2-0.2
					c0.1-0.2,0.3-0.1,0.5,0c0.2,0.1,0.5,0.2,0.7,0.2C201.7,152.3,202,152.3,202.2,152.4z"/>
				<path class="st4" d="M202.3,152.9c-0.1,0.1-0.2,0.2-0.3,0.4c-0.2,0.2-0.4,0.5-0.6,0.7c-0.1,0.2-0.3,0.3-0.4,0.5
					c-0.1,0.1-0.2,0.2-0.3,0.1c-0.1-0.1,0.2-0.3,0.3-0.4c0.1-0.1,0.2-0.1,0.3-0.2c0.3-0.2,0.5-0.5,0.7-0.7c0.1-0.1,0.2-0.1,0.3-0.2
					C202.2,152.9,202.3,152.9,202.3,152.9z"/>
				<path class="st4" d="M202.2,152.6c-0.1,0-0.3,0.1-0.4,0.1c-0.3,0.1-0.5,0.1-0.8,0.2c-0.2,0-0.4,0.1-0.6,0.1
					c-0.1,0-0.2,0-0.2-0.1c0-0.2,0.2-0.2,0.3-0.2c0.1,0,0.2,0,0.3,0c0.2,0,0.5,0,0.7-0.1C201.8,152.7,202,152.7,202.2,152.6z"/>
				<path class="st4" d="M202.2,152.8c-0.1,0.1-0.2,0.2-0.3,0.3c-0.2,0.2-0.4,0.3-0.6,0.5c-0.1,0.1-0.3,0.2-0.4,0.4
					c-0.1,0.1-0.2,0.1-0.3,0c-0.1-0.2,0.2-0.3,0.3-0.3c0.1-0.1,0.2-0.1,0.3-0.2c0.3-0.1,0.5-0.3,0.8-0.4c0.1-0.1,0.2-0.1,0.3-0.2
					C202.1,152.8,202.2,152.8,202.2,152.8z"/>
				<path class="st4" d="M202.2,152.7c-0.1,0.1-0.3,0.1-0.4,0.2c-0.3,0.1-0.5,0.2-0.8,0.4c-0.2,0.1-0.3,0.2-0.5,0.3
					c-0.1,0-0.2,0-0.2-0.1c-0.1-0.2,0.1-0.2,0.2-0.2c0.1,0,0.2-0.1,0.3-0.1c0.3-0.1,0.6-0.2,0.9-0.3c0.1,0,0.2-0.1,0.3-0.1
					C202.2,152.7,202.2,152.7,202.2,152.7z"/>
				<path class="st4" d="M202.4,152.9c-0.1,0.1-0.2,0.3-0.3,0.4c-0.2,0.3-0.3,0.6-0.5,0.9c-0.1,0.2-0.2,0.4-0.4,0.6
					c-0.1,0.1-0.2,0.1-0.2,0.1c-0.2-0.1,0-0.3,0.1-0.4c0.1-0.1,0.2-0.2,0.3-0.3c0.2-0.3,0.4-0.6,0.7-0.8c0.1-0.1,0.2-0.2,0.2-0.3
					C202.3,153,202.3,152.9,202.4,152.9z"/>
				<path class="st4" d="M202.2,152.5c-0.3,0-0.6,0.1-1,0.1c-0.2,0-0.3,0-0.5,0c-0.1,0-0.4,0.1-0.4-0.1c0-0.1,0.1-0.2,0.2-0.2
					c0.3,0,0.5,0,0.8,0.1C201.6,152.5,201.9,152.5,202.2,152.5C202.2,152.5,202.2,152.5,202.2,152.5z"/>
				<path class="st4" d="M202.3,152.3c-0.5-0.3-1.1-0.7-1.6-1c0,0,0,0,0,0c0,0-0.1,0-0.1-0.1c0-0.1,0-0.2,0-0.2
					c0.1-0.1,0.3,0.1,0.4,0.2c0.1,0.1,0.2,0.2,0.3,0.3C201.6,151.7,202,152,202.3,152.3z"/>
				<path class="st4" d="M202.4,152.2c-0.5-0.7-0.9-1.3-1.4-2c0-0.1-0.1-0.1-0.1-0.2c0-0.1,0.1-0.1,0.2,0c0.1,0,0.1,0.1,0.1,0.2
					c0.1,0.1,0.1,0.2,0.1,0.3c0.1,0.2,0.2,0.4,0.3,0.5c0.2,0.4,0.4,0.7,0.6,1.1C202.3,152,202.3,152.1,202.4,152.2z"/>
				<path class="st4" d="M202.3,152.2c-0.3-0.3-0.6-0.6-0.9-0.9c-0.1-0.1-0.3-0.3-0.4-0.4c-0.1-0.1-0.3-0.3-0.3-0.4
					c0-0.1,0.1-0.1,0.1-0.1c0,0,0.1,0,0.1,0c0.1,0.1,0.2,0.2,0.2,0.3c0.1,0.1,0.2,0.2,0.3,0.3c0.2,0.2,0.4,0.5,0.6,0.7
					C202.1,151.9,202.2,152,202.3,152.2z"/>
				<path class="st4" d="M202.4,152.1c-0.2-0.4-0.4-0.8-0.6-1.2c-0.1-0.2-0.2-0.4-0.3-0.6c0-0.1-0.1-0.2-0.1-0.2
					c0-0.1-0.1-0.2-0.1-0.3c0-0.1,0.1-0.2,0.1-0.2c0.1,0,0.1,0.1,0.2,0.2c0.2,0.7,0.4,1.3,0.7,2C202.4,151.9,202.4,152,202.4,152.1z
					"/>
				<path class="st4" d="M203,152.8l1.6,1.4c0.1,0.1,0,0.3-0.2,0.2C204.3,154.3,203,152.8,203,152.8z"/>
				<path class="st4" d="M203,152.7l1.7,1c0.1,0.1,0,0.3-0.2,0.2C204.6,154,203,152.7,203,152.7z"/>
				<path class="st4" d="M202.7,152l0.4-2.6c0-0.2,0.3-0.1,0.2,0.1C203.4,149.5,202.7,152,202.7,152z"/>
				<path class="st4" d="M203.1,152.7l1.7,0.6c0.2,0.1,0,0.3-0.1,0.3C204.7,153.6,203.1,152.7,203.1,152.7z"/>
				<path class="st4" d="M202.8,152l0.9-2.3c0.1-0.1,0.3-0.1,0.3,0.1C203.9,149.8,202.8,152,202.8,152z"/>
				<path class="st4" d="M202.9,152.2l1.5-1.7c0.1-0.1,0.3,0.1,0.2,0.2C204.6,150.7,202.9,152.2,202.9,152.2z"/>
				<path class="st4" d="M203.1,152.5c0.4,0,0.8,0,1.2,0c0.1,0,0.2,0,0.4,0c0.1,0,0.2,0,0.2,0c0,0.1,0,0.1,0,0.2
					c-0.1,0.1-0.2,0-0.3,0c-0.1,0-0.2,0-0.2,0c-0.2,0-0.4-0.1-0.6-0.1c-0.1,0-0.3,0-0.4-0.1C203.2,152.5,203.2,152.5,203.1,152.5z"
					/>
				<path class="st4" d="M202.9,152.3l1.7-1.2c0.1-0.1,0.3,0.1,0.1,0.2C204.8,151.3,202.9,152.3,202.9,152.3z"/>
				<path class="st4" d="M203.1,152.3l1.6-0.8c0.1,0,0.3,0.2,0.1,0.3C204.8,151.8,203.1,152.3,203.1,152.3z"/>
				<path class="st4" d="M203.1,152.4l1.7-0.5c0.2,0,0.2,0.2,0.1,0.3C204.9,152.2,203.1,152.4,203.1,152.4z"/>
				<path class="st4" d="M202.9,152.1l1.2-2c0.1-0.1,0.3,0,0.2,0.2C204.3,150.3,202.9,152.1,202.9,152.1z"/>
				<path class="st4" d="M203.1,152.6l1.7,0.3c0.1,0.1,0.1,0.3-0.1,0.3C204.8,153.1,203.1,152.6,203.1,152.6z"/>
				<path class="st4" d="M202.5,152.9c-0.1,0.2-0.1,0.3-0.2,0.5c-0.1,0.3-0.3,0.7-0.4,1c-0.1,0.2-0.2,0.5-0.3,0.7
					c0,0.1-0.1,0.2-0.2,0.1c-0.2-0.1,0-0.3,0-0.4c0.1-0.1,0.1-0.3,0.2-0.4c0.2-0.3,0.4-0.7,0.5-1c0.1-0.1,0.1-0.2,0.2-0.4
					C202.5,153,202.5,153,202.5,152.9z"/>
				<path class="st4" d="M202.5,153.1c0,0.2-0.1,0.4-0.1,0.6c-0.1,0.4-0.1,0.7-0.2,1.1c0,0.2-0.1,0.5-0.1,0.7c0,0.1-0.1,0.2-0.2,0.2
					c-0.2,0-0.1-0.3,0-0.4c0-0.1,0.1-0.3,0.1-0.4c0.1-0.4,0.2-0.7,0.3-1.1c0-0.1,0.1-0.3,0.1-0.4
					C202.5,153.2,202.5,153.2,202.5,153.1z"/>
				<path class="st4" d="M202.7,153c0,0.2,0.1,0.4,0.1,0.6c0.1,0.4,0.2,0.8,0.2,1.1c0.1,0.3,0.1,0.5,0.2,0.8c0,0.1,0,0.2-0.1,0.2
					c-0.2,0-0.2-0.3-0.2-0.4c0-0.2,0-0.3,0-0.5c0-0.4-0.1-0.8-0.1-1.2c0-0.1,0-0.3,0-0.4C202.8,153.1,202.8,153,202.7,153z"/>
				<path class="st4" d="M202.9,152.9c0.1,0.1,0.2,0.3,0.3,0.4c0.2,0.3,0.4,0.5,0.6,0.8c0.1,0.2,0.3,0.4,0.4,0.6
					c0.1,0.1,0,0.2,0,0.2c-0.2,0.1-0.2-0.1-0.3-0.2c-0.1-0.1-0.1-0.2-0.2-0.4c-0.2-0.3-0.3-0.6-0.5-0.9c-0.1-0.1-0.1-0.2-0.2-0.3
					C203,153,202.9,152.9,202.9,152.9z"/>
				<path class="st4" d="M202.6,153l0.1,2.9c0,0.2-0.3,0.2-0.3,0C202.4,155.8,202.6,153,202.6,153z"/>
				<ellipse class="st4" cx="202.6" cy="152.5" rx="0.2" ry="0.3"/>
				<path class="st4" d="M202.5,152l-0.6-2.6c0-0.2,0.2-0.2,0.3,0C202.2,149.4,202.5,152,202.5,152z"/>
				<path class="st4" d="M202.9,153c0.1,0.2,0.2,0.3,0.2,0.5c0.2,0.3,0.3,0.7,0.5,1c0.1,0.2,0.2,0.5,0.3,0.7c0,0.1,0,0.2-0.1,0.2
					c-0.2,0.1-0.2-0.2-0.3-0.3c0-0.1-0.1-0.3-0.1-0.4c-0.1-0.4-0.2-0.7-0.4-1.1c0-0.1-0.1-0.3-0.1-0.4
					C202.9,153.1,202.9,153,202.9,153z"/>
			</g>
			<g>
				<path class="st5" d="M202.6,161.4l-0.1-2.3c0-0.1,0.2-0.2,0.2,0C202.7,159.1,202.6,161.4,202.6,161.4z"/>
				<path class="st5" d="M202.3,161.6c-0.4-0.1-0.7-0.3-1.1-0.4c-0.1,0-0.3-0.1-0.3-0.1c0,0,0-0.1,0-0.1c0,0,0.1-0.1,0.1-0.1
					c0.1,0,0.2,0.1,0.3,0.1c0.1,0.1,0.2,0.1,0.3,0.2c0.2,0.1,0.4,0.2,0.6,0.3C202.2,161.5,202.2,161.5,202.3,161.6z"/>
				<path class="st5" d="M202.3,161.6c-0.1,0-0.2,0-0.3,0c-0.2,0-0.5-0.1-0.7-0.1c-0.1,0-0.2,0-0.4-0.1c-0.1,0-0.2-0.1-0.1-0.2
					c0-0.1,0.3,0,0.4,0c0.2,0.1,0.4,0.1,0.6,0.2C201.9,161.5,202.1,161.6,202.3,161.6z"/>
				<path class="st5" d="M202.4,162c-0.1,0.1-0.2,0.2-0.3,0.3c-0.2,0.2-0.3,0.4-0.5,0.6c-0.1,0.1-0.2,0.3-0.3,0.4
					c0,0-0.2,0.1-0.2,0.1c-0.1-0.1,0.1-0.3,0.2-0.3c0.1-0.1,0.2-0.1,0.2-0.2c0.2-0.2,0.4-0.4,0.6-0.5
					C202.2,162.2,202.2,162.1,202.4,162C202.3,162,202.4,162,202.4,162z"/>
				<path class="st5" d="M202.3,161.8c-0.1,0-0.2,0.1-0.3,0.1c-0.2,0.1-0.4,0.1-0.6,0.2c-0.1,0-0.3,0.1-0.4,0.1
					c-0.1,0-0.1,0-0.1-0.1c0-0.2,0.1-0.1,0.2-0.1c0.1,0,0.2,0,0.3,0c0.2,0,0.4,0,0.5-0.1C202,161.8,202.2,161.8,202.3,161.8z"/>
				<path class="st5" d="M202.3,161.9c-0.1,0.1-0.2,0.1-0.3,0.2c-0.2,0.1-0.3,0.3-0.5,0.4c-0.1,0.1-0.2,0.2-0.3,0.3
					c-0.1,0.1-0.2,0.1-0.2,0c-0.1-0.1,0.1-0.2,0.2-0.3c0.1,0,0.2-0.1,0.2-0.1c0.2-0.1,0.4-0.2,0.6-0.4
					C202.1,162.1,202.1,162,202.3,161.9C202.2,162,202.3,161.9,202.3,161.9z"/>
				<path class="st5" d="M202.3,161.8c-0.1,0.1-0.2,0.1-0.3,0.1c-0.2,0.1-0.4,0.2-0.6,0.3c-0.1,0.1-0.3,0.1-0.4,0.2
					c-0.1,0-0.1,0-0.2-0.1c0-0.1,0.1-0.2,0.2-0.2c0.1,0,0.2-0.1,0.3-0.1c0.2-0.1,0.5-0.1,0.7-0.2
					C202.1,161.9,202.1,161.9,202.3,161.8C202.3,161.9,202.3,161.9,202.3,161.8z"/>
				<path class="st5" d="M202.4,162c-0.1,0.1-0.1,0.2-0.2,0.3c-0.1,0.2-0.3,0.5-0.4,0.7c-0.1,0.2-0.2,0.3-0.3,0.5
					c0,0.1-0.1,0.1-0.2,0.1c-0.1-0.1,0-0.2,0.1-0.3c0.1-0.1,0.1-0.2,0.2-0.3c0.2-0.2,0.3-0.4,0.5-0.7
					C202.2,162.3,202.3,162.2,202.4,162C202.4,162.1,202.4,162,202.4,162z"/>
				<path class="st5" d="M202.3,161.7c-0.3,0-0.5,0-0.8,0.1c-0.1,0-0.3,0-0.4,0c-0.1,0-0.3,0.1-0.3-0.1c0-0.1,0-0.1,0.1-0.1
					c0.2,0,0.4,0,0.6,0C201.8,161.7,202,161.7,202.3,161.7C202.3,161.7,202.3,161.7,202.3,161.7z"/>
				<path class="st5" d="M202.4,161.5c-0.4-0.3-0.9-0.5-1.3-0.8c0,0,0,0,0,0c0,0,0,0-0.1,0c0,0,0-0.1,0-0.2c0.1-0.1,0.2,0.1,0.3,0.2
					c0.1,0.1,0.2,0.2,0.3,0.2C201.9,161.1,202.1,161.3,202.4,161.5z"/>
				<path class="st5" d="M202.4,161.4c-0.4-0.5-0.7-1-1.1-1.6c0,0-0.1-0.1,0-0.2c0-0.1,0.1-0.1,0.2,0c0.1,0,0.1,0.1,0.1,0.2
					c0,0.1,0.1,0.1,0.1,0.2c0.1,0.1,0.2,0.3,0.2,0.4c0.2,0.3,0.3,0.6,0.5,0.8C202.4,161.3,202.4,161.4,202.4,161.4z"/>
				<path class="st5" d="M202.4,161.4c-0.2-0.2-0.5-0.5-0.7-0.7c-0.1-0.1-0.2-0.2-0.3-0.3c-0.1-0.1-0.3-0.2-0.2-0.3
					c0,0,0-0.1,0.1-0.1c0,0,0.1,0,0.1,0c0.1,0.1,0.1,0.1,0.2,0.2c0.1,0.1,0.1,0.2,0.2,0.3c0.2,0.2,0.3,0.4,0.5,0.6
					C202.2,161.2,202.3,161.3,202.4,161.4z"/>
				<path class="st5" d="M202.5,161.4c-0.1-0.3-0.3-0.7-0.4-1c-0.1-0.2-0.1-0.3-0.2-0.5c0-0.1-0.1-0.1-0.1-0.2
					c0-0.1-0.1-0.2-0.1-0.3c0-0.1,0-0.1,0.1-0.1c0.1,0,0.1,0.1,0.1,0.1c0.2,0.5,0.4,1.1,0.5,1.6
					C202.4,161.2,202.5,161.3,202.5,161.4z"/>
				<path class="st5" d="M202.9,161.9l1.2,1.1c0.1,0.1,0,0.2-0.1,0.2C204,163.1,202.9,161.9,202.9,161.9z"/>
				<path class="st5" d="M203,161.9l1.4,0.8c0.1,0.1,0,0.3-0.1,0.2C204.2,162.9,203,161.9,203,161.9z"/>
				<path class="st5" d="M202.7,161.3l0.3-2c0-0.1,0.2-0.1,0.2,0C203.2,159.3,202.7,161.3,202.7,161.3z"/>
				<path class="st5" d="M203,161.9l1.3,0.5c0.1,0.1,0,0.2-0.1,0.2C204.3,162.5,203,161.9,203,161.9z"/>
				<path class="st5" d="M202.8,161.3l0.7-1.9c0-0.1,0.3-0.1,0.2,0.1C203.7,159.5,202.8,161.3,202.8,161.3z"/>
				<path class="st5" d="M202.9,161.5l1.2-1.4c0.1-0.1,0.2,0,0.2,0.2C204.2,160.3,202.9,161.5,202.9,161.5z"/>
				<path class="st5" d="M203,161.7c0.3,0,0.6,0,0.9,0c0.1,0,0.2,0,0.3,0c0.1,0,0.1,0,0.2,0c0,0,0,0.1,0,0.1c-0.1,0.1-0.2,0-0.2,0
					c-0.1,0-0.1,0-0.2,0c-0.2,0-0.3,0-0.5-0.1c-0.1,0-0.2,0-0.4,0C203.1,161.7,203.1,161.7,203,161.7z"/>
				<path class="st5" d="M202.9,161.5l1.3-1c0.1-0.1,0.2,0.1,0.1,0.2C204.3,160.7,202.9,161.5,202.9,161.5z"/>
				<path class="st5" d="M203,161.5l1.3-0.6c0.1,0,0.2,0.1,0.1,0.2C204.3,161.1,203,161.5,203,161.5z"/>
				<path class="st5" d="M203,161.6l1.4-0.4c0.1,0,0.2,0.2,0,0.2C204.4,161.5,203,161.6,203,161.6z"/>
				<path class="st5" d="M202.8,161.4l1-1.5c0.1-0.1,0.3,0,0.2,0.1C204,160,202.8,161.4,202.8,161.4z"/>
				<path class="st5" d="M203,161.7l1.4,0.2c0.1,0.1,0,0.2-0.1,0.2C204.3,162.2,203,161.7,203,161.7z"/>
				<path class="st5" d="M202.5,162c-0.1,0.1-0.1,0.3-0.2,0.4c-0.1,0.3-0.2,0.5-0.3,0.8c-0.1,0.2-0.1,0.4-0.2,0.6
					c0,0.1-0.1,0.1-0.2,0.1c-0.1-0.1,0-0.2,0-0.3c0.1-0.1,0.1-0.2,0.2-0.3c0.1-0.3,0.3-0.5,0.4-0.8c0.1-0.1,0.1-0.2,0.2-0.3
					C202.5,162.1,202.5,162.1,202.5,162z"/>
				<path class="st5" d="M202.6,162.2c0,0.1,0,0.3-0.1,0.4c0,0.3-0.1,0.6-0.1,0.9c0,0.2,0,0.4-0.1,0.6c0,0.1-0.1,0.1-0.1,0.1
					c-0.1,0-0.1-0.2,0-0.3c0-0.1,0.1-0.2,0.1-0.4c0.1-0.3,0.2-0.6,0.2-0.9c0-0.1,0.1-0.2,0.1-0.3
					C202.5,162.3,202.6,162.2,202.6,162.2z"/>
				<path class="st5" d="M202.7,162.1c0,0.2,0.1,0.3,0.1,0.5c0.1,0.3,0.1,0.6,0.2,0.9c0,0.2,0.1,0.4,0.1,0.6c0,0.1,0,0.2-0.1,0.2
					c-0.2,0-0.1-0.2-0.2-0.3c0-0.1,0-0.3,0-0.4c0-0.3-0.1-0.6-0.1-1c0-0.1,0-0.2,0-0.3C202.7,162.2,202.7,162.1,202.7,162.1z"/>
				<path class="st5" d="M202.9,162c0.1,0.1,0.2,0.2,0.2,0.3c0.2,0.2,0.3,0.4,0.5,0.6c0.1,0.1,0.2,0.3,0.3,0.4c0,0.1,0,0.2,0,0.2
					c-0.1,0.1-0.2-0.1-0.2-0.2c-0.1-0.1-0.1-0.2-0.2-0.3c-0.1-0.2-0.3-0.5-0.4-0.7c0-0.1-0.1-0.2-0.1-0.3
					C202.9,162.1,202.9,162,202.9,162z"/>
				<path class="st5" d="M202.6,162l0.1,2.3c0,0.1-0.2,0.2-0.2,0C202.5,164.3,202.6,162,202.6,162z"/>
				<ellipse class="st5" cx="202.6" cy="161.7" rx="0.1" ry="0.2"/>
				<path class="st5" d="M202.6,161.3l-0.5-2.1c0-0.1,0.2-0.2,0.2,0C202.3,159.2,202.6,161.3,202.6,161.3z"/>
				<path class="st5" d="M202.8,162.1c0.1,0.1,0.1,0.3,0.2,0.4c0.1,0.3,0.2,0.5,0.4,0.8c0.1,0.2,0.2,0.4,0.2,0.5
					c0,0.1,0,0.2-0.1,0.2c-0.1,0-0.2-0.2-0.2-0.3c0-0.1-0.1-0.2-0.1-0.3c-0.1-0.3-0.2-0.6-0.3-0.9c0-0.1-0.1-0.2-0.1-0.3
					C202.9,162.2,202.8,162.1,202.8,162.1z"/>
			</g>
			<g>
				<path class="st6" d="M202.6,170.4l-0.1-2.9c0-0.2,0.3-0.2,0.3,0C202.8,167.6,202.6,170.4,202.6,170.4z"/>
				<path class="st6" d="M202.2,170.7c-0.5-0.2-0.9-0.3-1.4-0.5c-0.1,0-0.3-0.1-0.4-0.2c0,0,0-0.1,0-0.1c0,0,0.1-0.1,0.1-0.1
					c0.1,0,0.3,0.1,0.4,0.2c0.1,0.1,0.3,0.1,0.4,0.2c0.3,0.1,0.5,0.3,0.8,0.4C202.1,170.6,202.1,170.7,202.2,170.7z"/>
				<path class="st6" d="M202.2,170.8c-0.1,0-0.3,0-0.4-0.1c-0.3,0-0.6-0.1-0.9-0.1c-0.1,0-0.3,0-0.4-0.1c-0.1,0-0.2-0.1-0.2-0.2
					c0.1-0.2,0.3-0.1,0.5,0c0.2,0.1,0.5,0.2,0.7,0.2C201.7,170.6,202,170.7,202.2,170.8z"/>
				<path class="st6" d="M202.3,171.2c-0.1,0.1-0.2,0.2-0.3,0.4c-0.2,0.2-0.4,0.5-0.6,0.7c-0.1,0.2-0.3,0.3-0.4,0.5
					c-0.1,0.1-0.2,0.2-0.3,0.1c-0.1-0.1,0.2-0.3,0.3-0.4c0.1-0.1,0.2-0.1,0.3-0.2c0.3-0.2,0.5-0.4,0.7-0.7c0.1-0.1,0.2-0.1,0.3-0.2
					C202.3,171.3,202.3,171.3,202.3,171.2z"/>
				<path class="st6" d="M202.2,171c-0.1,0-0.3,0.1-0.4,0.1c-0.3,0.1-0.5,0.1-0.8,0.2c-0.2,0-0.4,0.1-0.5,0.1c-0.1,0-0.2,0-0.2-0.1
					c0-0.2,0.2-0.2,0.3-0.2c0.1,0,0.2,0,0.3,0c0.2,0,0.5,0,0.7-0.1C201.8,171,202,171,202.2,171z"/>
				<path class="st6" d="M202.2,171.2c-0.1,0.1-0.2,0.2-0.3,0.3c-0.2,0.2-0.4,0.3-0.6,0.5c-0.1,0.1-0.3,0.2-0.4,0.4
					c-0.1,0.1-0.2,0.1-0.3,0c-0.1-0.2,0.2-0.3,0.3-0.3c0.1-0.1,0.2-0.1,0.3-0.2c0.2-0.1,0.5-0.3,0.7-0.4c0.1-0.1,0.2-0.1,0.3-0.2
					C202.1,171.2,202.2,171.2,202.2,171.2z"/>
				<path class="st6" d="M202.2,171.1c-0.1,0.1-0.3,0.1-0.4,0.2c-0.3,0.1-0.5,0.2-0.8,0.4c-0.2,0.1-0.3,0.2-0.5,0.3
					c-0.1,0-0.2,0-0.2-0.1c-0.1-0.2,0.1-0.2,0.2-0.2c0.1,0,0.2-0.1,0.3-0.1c0.3-0.1,0.6-0.2,0.9-0.3c0.1,0,0.2-0.1,0.3-0.1
					C202.2,171.1,202.2,171.1,202.2,171.1z"/>
				<path class="st6" d="M202.4,171.3c-0.1,0.1-0.2,0.3-0.3,0.4c-0.2,0.3-0.3,0.6-0.5,0.9c-0.1,0.2-0.2,0.4-0.3,0.6
					c-0.1,0.1-0.2,0.1-0.2,0.1c-0.2-0.1,0-0.3,0.1-0.4c0.1-0.1,0.2-0.2,0.3-0.3c0.2-0.3,0.4-0.6,0.7-0.8c0.1-0.1,0.2-0.2,0.2-0.3
					C202.3,171.3,202.3,171.3,202.4,171.3z"/>
				<path class="st6" d="M202.2,170.9c-0.3,0-0.6,0.1-1,0.1c-0.2,0-0.3,0-0.5,0c-0.1,0-0.4,0.1-0.4-0.1c0-0.1,0.1-0.2,0.2-0.2
					c0.3,0,0.5,0,0.8,0.1C201.6,170.8,201.9,170.9,202.2,170.9C202.2,170.9,202.2,170.9,202.2,170.9z"/>
				<path class="st6" d="M202.3,170.7c-0.5-0.3-1.1-0.7-1.6-1c0,0,0,0,0,0c0,0-0.1,0-0.1-0.1c0-0.1,0-0.2,0-0.2
					c0.1-0.1,0.3,0.1,0.4,0.2c0.1,0.1,0.2,0.2,0.3,0.3C201.6,170.1,202,170.4,202.3,170.7z"/>
				<path class="st6" d="M202.4,170.5c-0.5-0.7-0.9-1.3-1.4-2c0-0.1-0.1-0.1-0.1-0.2c0-0.1,0.1-0.1,0.2,0c0.1,0,0.1,0.1,0.1,0.2
					c0,0.1,0.1,0.2,0.1,0.3c0.1,0.2,0.2,0.4,0.3,0.5c0.2,0.3,0.4,0.7,0.6,1C202.3,170.4,202.4,170.5,202.4,170.5z"/>
				<path class="st6" d="M202.3,170.5c-0.3-0.3-0.6-0.6-0.9-0.9c-0.1-0.1-0.3-0.3-0.4-0.4c-0.1-0.1-0.3-0.3-0.3-0.4
					c0-0.1,0.1-0.1,0.1-0.1c0,0,0.1,0,0.1,0c0.1,0.1,0.2,0.2,0.2,0.3c0.1,0.1,0.2,0.2,0.3,0.3c0.2,0.2,0.4,0.5,0.6,0.7
					C202.1,170.2,202.2,170.4,202.3,170.5z"/>
				<path class="st6" d="M202.4,170.5c-0.2-0.4-0.4-0.8-0.6-1.2c-0.1-0.2-0.2-0.4-0.3-0.6c0-0.1-0.1-0.2-0.1-0.2
					c0-0.1-0.1-0.2-0.1-0.3c0-0.1,0.1-0.2,0.1-0.2c0.1,0,0.1,0.1,0.2,0.2c0.2,0.7,0.4,1.3,0.7,2
					C202.4,170.2,202.4,170.4,202.4,170.5z"/>
				<path class="st6" d="M203,171.1l1.5,1.4c0.1,0.1,0,0.3-0.2,0.2C204.3,172.7,203,171.1,203,171.1z"/>
				<path class="st6" d="M203,171.1l1.7,1c0.1,0.1,0,0.3-0.2,0.2C204.5,172.3,203,171.1,203,171.1z"/>
				<path class="st6" d="M202.7,170.4l0.4-2.6c0-0.2,0.3-0.1,0.2,0.1C203.4,167.9,202.7,170.4,202.7,170.4z"/>
				<path class="st6" d="M203.1,171.1l1.7,0.6c0.2,0.1,0,0.3-0.1,0.3C204.7,171.9,203.1,171.1,203.1,171.1z"/>
				<path class="st6" d="M202.8,170.3l0.9-2.3c0.1-0.1,0.3-0.1,0.3,0.1C203.9,168.1,202.8,170.3,202.8,170.3z"/>
				<path class="st6" d="M202.9,170.6l1.5-1.7c0.1-0.1,0.3,0.1,0.2,0.2C204.6,169.1,202.9,170.6,202.9,170.6z"/>
				<path class="st6" d="M203.1,170.8c0.4,0,0.8,0,1.2,0c0.1,0,0.2,0,0.4,0c0.1,0,0.2,0,0.2,0c0,0.1,0,0.1,0,0.2
					c-0.1,0.1-0.2,0-0.3,0c-0.1,0-0.2,0-0.2,0c-0.2,0-0.4-0.1-0.6-0.1c-0.1,0-0.3,0-0.4-0.1C203.2,170.8,203.2,170.8,203.1,170.8z"
					/>
				<path class="st6" d="M202.9,170.6l1.7-1.2c0.1-0.1,0.3,0.1,0.1,0.2C204.7,169.6,202.9,170.6,202.9,170.6z"/>
				<path class="st6" d="M203.1,170.7l1.6-0.8c0.1,0,0.3,0.2,0.1,0.3C204.8,170.2,203.1,170.7,203.1,170.7z"/>
				<path class="st6" d="M203.1,170.7l1.7-0.5c0.2,0,0.2,0.2,0.1,0.3C204.9,170.6,203.1,170.7,203.1,170.7z"/>
				<path class="st6" d="M202.9,170.5l1.2-1.9c0.1-0.1,0.3,0,0.2,0.2C204.3,168.7,202.9,170.5,202.9,170.5z"/>
				<path class="st6" d="M203.1,170.9l1.7,0.3c0.1,0.1,0.1,0.3-0.1,0.3C204.8,171.5,203.1,170.9,203.1,170.9z"/>
				<path class="st6" d="M202.5,171.3c-0.1,0.2-0.1,0.3-0.2,0.5c-0.1,0.3-0.3,0.7-0.4,1c-0.1,0.2-0.2,0.5-0.3,0.7
					c0,0.1-0.1,0.2-0.2,0.1c-0.2-0.1,0-0.3,0-0.4c0.1-0.1,0.1-0.3,0.2-0.4c0.2-0.3,0.4-0.7,0.5-1c0.1-0.1,0.1-0.2,0.2-0.4
					C202.5,171.4,202.5,171.3,202.5,171.3z"/>
				<path class="st6" d="M202.5,171.5c0,0.2-0.1,0.4-0.1,0.5c-0.1,0.4-0.1,0.7-0.2,1.1c0,0.2-0.1,0.5-0.1,0.7c0,0.1-0.1,0.2-0.2,0.2
					c-0.2,0-0.1-0.3,0-0.4c0-0.1,0.1-0.3,0.1-0.4c0.1-0.4,0.2-0.7,0.3-1.1c0-0.1,0.1-0.3,0.1-0.4
					C202.5,171.6,202.5,171.5,202.5,171.5z"/>
				<path class="st6" d="M202.7,171.3c0,0.2,0.1,0.4,0.1,0.6c0.1,0.4,0.2,0.7,0.2,1.1c0.1,0.3,0.1,0.5,0.2,0.8c0,0.1,0,0.2-0.1,0.2
					c-0.2,0-0.2-0.3-0.2-0.4c0-0.2,0-0.3,0-0.5c0-0.4-0.1-0.8-0.1-1.2c0-0.1,0-0.3,0-0.4C202.8,171.4,202.8,171.4,202.7,171.3z"/>
				<path class="st6" d="M202.9,171.2c0.1,0.1,0.2,0.3,0.3,0.4c0.2,0.3,0.4,0.5,0.6,0.8c0.1,0.2,0.3,0.4,0.4,0.6
					c0.1,0.1,0,0.2,0,0.2c-0.2,0.1-0.2-0.1-0.3-0.2c-0.1-0.1-0.1-0.2-0.2-0.4c-0.2-0.3-0.3-0.6-0.5-0.9c-0.1-0.1-0.1-0.2-0.2-0.3
					C203,171.3,202.9,171.3,202.9,171.2z"/>
				<path class="st6" d="M202.6,171.3l0.1,2.9c0,0.2-0.3,0.2-0.3,0C202.4,174.1,202.6,171.3,202.6,171.3z"/>
				<ellipse class="st6" cx="202.6" cy="170.9" rx="0.2" ry="0.3"/>
				<path class="st6" d="M202.5,170.4l-0.6-2.6c0-0.2,0.2-0.2,0.3,0C202.2,167.8,202.5,170.4,202.5,170.4z"/>
				<path class="st6" d="M202.9,171.3c0.1,0.2,0.2,0.3,0.2,0.5c0.2,0.3,0.3,0.7,0.5,1c0.1,0.2,0.2,0.5,0.3,0.7c0,0.1,0,0.2-0.1,0.2
					c-0.2,0.1-0.2-0.2-0.3-0.3c0-0.1-0.1-0.3-0.1-0.4c-0.1-0.4-0.2-0.7-0.4-1.1c0-0.1-0.1-0.3-0.1-0.4
					C202.9,171.4,202.9,171.4,202.9,171.3z"/>
			</g>
			<g>
				<path class="st7" d="M202.6,135.3l-0.1-2.3c0-0.1,0.2-0.2,0.2,0C202.7,133,202.6,135.3,202.6,135.3z"/>
				<path class="st7" d="M202.3,135.5c-0.4-0.1-0.7-0.3-1.1-0.4c-0.1,0-0.2-0.1-0.3-0.1c0,0,0-0.1,0-0.1s0.1-0.1,0.1-0.1
					c0.1,0,0.2,0.1,0.3,0.1c0.1,0.1,0.2,0.1,0.3,0.2c0.2,0.1,0.4,0.2,0.6,0.3C202.2,135.4,202.2,135.5,202.3,135.5z"/>
				<path class="st7" d="M202.3,135.5c-0.1,0-0.2,0-0.3,0c-0.2,0-0.4-0.1-0.7-0.1c-0.1,0-0.2,0-0.3-0.1c-0.1,0-0.2-0.1-0.1-0.1
					c0-0.1,0.3,0,0.4,0c0.2,0.1,0.4,0.1,0.6,0.2C201.9,135.4,202.1,135.5,202.3,135.5z"/>
				<path class="st7" d="M202.4,135.9c-0.1,0.1-0.2,0.2-0.2,0.3c-0.2,0.2-0.3,0.4-0.5,0.5c-0.1,0.1-0.2,0.3-0.3,0.4
					c0,0-0.2,0.1-0.2,0.1c-0.1-0.1,0.1-0.3,0.2-0.3c0.1-0.1,0.2-0.1,0.2-0.2c0.2-0.2,0.4-0.4,0.6-0.5
					C202.2,136.1,202.2,136,202.4,135.9C202.3,135.9,202.4,135.9,202.4,135.9z"/>
				<path class="st7" d="M202.3,135.7c-0.1,0-0.2,0.1-0.3,0.1c-0.2,0.1-0.4,0.1-0.6,0.2c-0.1,0-0.3,0.1-0.4,0.1
					c-0.1,0-0.1,0-0.1-0.1c0-0.2,0.1-0.1,0.2-0.1c0.1,0,0.2,0,0.3,0c0.2,0,0.4,0,0.5-0.1C202,135.7,202.2,135.7,202.3,135.7z"/>
				<path class="st7" d="M202.3,135.8c-0.1,0.1-0.2,0.1-0.3,0.2c-0.2,0.1-0.3,0.3-0.5,0.4c-0.1,0.1-0.2,0.2-0.3,0.3
					c-0.1,0.1-0.2,0.1-0.2,0c-0.1-0.1,0.1-0.2,0.2-0.3c0.1,0,0.2-0.1,0.2-0.1c0.2-0.1,0.4-0.2,0.6-0.3
					C202.1,136,202.2,135.9,202.3,135.8C202.2,135.9,202.3,135.9,202.3,135.8z"/>
				<path class="st7" d="M202.3,135.8c-0.1,0-0.2,0.1-0.3,0.1c-0.2,0.1-0.4,0.2-0.6,0.3c-0.1,0.1-0.3,0.1-0.4,0.2
					c-0.1,0-0.1,0-0.2-0.1c0-0.1,0.1-0.2,0.2-0.2c0.1,0,0.2-0.1,0.3-0.1c0.2-0.1,0.4-0.1,0.7-0.2
					C202.1,135.8,202.2,135.8,202.3,135.8C202.3,135.8,202.3,135.8,202.3,135.8z"/>
				<path class="st7" d="M202.4,135.9c-0.1,0.1-0.1,0.2-0.2,0.3c-0.1,0.2-0.3,0.4-0.4,0.7c-0.1,0.2-0.2,0.3-0.3,0.5
					c0,0.1-0.1,0.1-0.2,0.1c-0.1-0.1,0-0.2,0.1-0.3c0.1-0.1,0.1-0.2,0.2-0.3c0.2-0.2,0.3-0.4,0.5-0.7
					C202.2,136.2,202.3,136.1,202.4,135.9C202.4,136,202.4,135.9,202.4,135.9z"/>
				<path class="st7" d="M202.3,135.6c-0.3,0-0.5,0-0.8,0.1c-0.1,0-0.3,0-0.4,0c-0.1,0-0.3,0.1-0.3-0.1c0-0.1,0-0.1,0.1-0.1
					c0.2,0,0.4,0,0.6,0C201.8,135.6,202,135.6,202.3,135.6C202.3,135.6,202.3,135.6,202.3,135.6z"/>
				<path class="st7" d="M202.4,135.4c-0.4-0.3-0.8-0.5-1.3-0.8c0,0,0,0,0,0c0,0,0,0-0.1,0c0,0,0-0.1,0-0.2c0.1-0.1,0.2,0.1,0.3,0.2
					c0.1,0.1,0.2,0.1,0.3,0.2C201.9,135,202.1,135.2,202.4,135.4z"/>
				<path class="st7" d="M202.4,135.3c-0.4-0.5-0.7-1-1.1-1.5c0,0-0.1-0.1,0-0.2c0-0.1,0.1-0.1,0.2,0c0,0,0.1,0.1,0.1,0.2
					c0,0.1,0.1,0.1,0.1,0.2c0.1,0.1,0.2,0.3,0.2,0.4c0.2,0.3,0.3,0.5,0.5,0.8C202.4,135.2,202.4,135.3,202.4,135.3z"/>
				<path class="st7" d="M202.4,135.3c-0.2-0.2-0.5-0.5-0.7-0.7c-0.1-0.1-0.2-0.2-0.3-0.3c-0.1-0.1-0.3-0.2-0.2-0.3
					c0,0,0-0.1,0.1-0.1c0,0,0.1,0,0.1,0c0.1,0.1,0.1,0.1,0.2,0.2c0.1,0.1,0.1,0.2,0.2,0.2c0.1,0.2,0.3,0.4,0.4,0.6
					C202.2,135.1,202.3,135.2,202.4,135.3z"/>
				<path class="st7" d="M202.5,135.3c-0.1-0.3-0.3-0.6-0.4-1c-0.1-0.2-0.1-0.3-0.2-0.5c0-0.1-0.1-0.1-0.1-0.2
					c0-0.1-0.1-0.2-0.1-0.3c0-0.1,0-0.1,0.1-0.1c0.1,0,0.1,0.1,0.1,0.1c0.2,0.5,0.3,1,0.5,1.6C202.4,135.1,202.5,135.2,202.5,135.3z
					"/>
				<path class="st7" d="M202.9,135.8l1.2,1.1c0.1,0.1,0,0.2-0.1,0.2C203.9,137,202.9,135.8,202.9,135.8z"/>
				<path class="st7" d="M203,135.8l1.3,0.8c0.1,0.1,0,0.3-0.1,0.2C204.1,136.8,203,135.8,203,135.8z"/>
				<path class="st7" d="M202.7,135.2l0.3-2c0-0.1,0.2-0.1,0.2,0C203.2,133.3,202.7,135.2,202.7,135.2z"/>
				<path class="st7" d="M203,135.8l1.3,0.5c0.1,0.1,0,0.2-0.1,0.2C204.3,136.4,203,135.8,203,135.8z"/>
				<path class="st7" d="M202.8,135.2l0.7-1.8c0-0.1,0.3-0.1,0.2,0.1C203.6,133.5,202.8,135.2,202.8,135.2z"/>
				<path class="st7" d="M202.9,135.4l1.2-1.3c0.1-0.1,0.2,0,0.2,0.2C204.2,134.2,202.9,135.4,202.9,135.4z"/>
				<path class="st7" d="M203,135.6c0.3,0,0.6,0,0.9,0c0.1,0,0.2,0,0.3,0c0.1,0,0.1,0,0.2,0c0,0,0,0.1,0,0.1c0,0.1-0.2,0-0.2,0
					c-0.1,0-0.1,0-0.2,0c-0.2,0-0.3,0-0.5-0.1c-0.1,0-0.2,0-0.3,0C203.1,135.6,203.1,135.6,203,135.6z"/>
				<path class="st7" d="M202.9,135.4l1.3-1c0.1-0.1,0.2,0.1,0.1,0.2C204.3,134.6,202.9,135.4,202.9,135.4z"/>
				<path class="st7" d="M203,135.4l1.3-0.6c0.1,0,0.2,0.1,0.1,0.2C204.3,135,203,135.4,203,135.4z"/>
				<path class="st7" d="M203,135.5l1.4-0.4c0.1,0,0.2,0.2,0,0.2C204.4,135.4,203,135.5,203,135.5z"/>
				<path class="st7" d="M202.8,135.3l1-1.5c0.1-0.1,0.2,0,0.2,0.1C203.9,133.9,202.8,135.3,202.8,135.3z"/>
				<path class="st7" d="M203,135.6l1.4,0.2c0.1,0.1,0,0.2-0.1,0.2C204.3,136.1,203,135.6,203,135.6z"/>
				<path class="st7" d="M202.5,135.9c-0.1,0.1-0.1,0.3-0.2,0.4c-0.1,0.3-0.2,0.5-0.3,0.8c-0.1,0.2-0.1,0.4-0.2,0.6
					c0,0.1-0.1,0.1-0.2,0.1c-0.1-0.1,0-0.2,0-0.3c0.1-0.1,0.1-0.2,0.2-0.3c0.1-0.3,0.3-0.5,0.4-0.8c0-0.1,0.1-0.2,0.1-0.3
					C202.5,136,202.5,136,202.5,135.9z"/>
				<path class="st7" d="M202.6,136.1c0,0.1,0,0.3-0.1,0.4c0,0.3-0.1,0.6-0.1,0.8c0,0.2,0,0.4-0.1,0.6c0,0.1-0.1,0.1-0.1,0.1
					c-0.1,0-0.1-0.2,0-0.3c0-0.1,0.1-0.2,0.1-0.3c0.1-0.3,0.2-0.6,0.2-0.9c0-0.1,0.1-0.2,0.1-0.3
					C202.5,136.2,202.6,136.1,202.6,136.1z"/>
				<path class="st7" d="M202.7,136c0,0.1,0.1,0.3,0.1,0.4c0.1,0.3,0.1,0.6,0.2,0.9c0,0.2,0.1,0.4,0.1,0.6c0,0.1,0,0.2-0.1,0.2
					c-0.2,0-0.1-0.2-0.2-0.3c0-0.1,0-0.3,0-0.4c0-0.3-0.1-0.6-0.1-1c0-0.1,0-0.2,0-0.3C202.7,136.1,202.7,136,202.7,136z"/>
				<path class="st7" d="M202.9,135.9c0.1,0.1,0.2,0.2,0.2,0.3c0.2,0.2,0.3,0.4,0.5,0.6c0.1,0.1,0.2,0.3,0.3,0.4c0,0.1,0,0.2,0,0.2
					c-0.1,0.1-0.2-0.1-0.2-0.2c-0.1-0.1-0.1-0.2-0.2-0.3c-0.1-0.2-0.3-0.5-0.4-0.7c0-0.1-0.1-0.2-0.1-0.3
					C202.9,136,202.9,135.9,202.9,135.9z"/>
				<path class="st7" d="M202.6,135.9l0.1,2.3c0,0.1-0.2,0.2-0.2,0C202.5,138.2,202.6,135.9,202.6,135.9z"/>
				<ellipse class="st7" cx="202.6" cy="135.6" rx="0.1" ry="0.2"/>
				<path class="st7" d="M202.6,135.2l-0.5-2c0-0.1,0.2-0.2,0.2,0C202.3,133.2,202.6,135.2,202.6,135.2z"/>
				<path class="st7" d="M202.8,136c0.1,0.1,0.1,0.3,0.2,0.4c0.1,0.3,0.2,0.5,0.4,0.8c0.1,0.2,0.2,0.4,0.2,0.5c0,0.1,0,0.2-0.1,0.2
					c-0.1,0-0.2-0.2-0.2-0.3c0-0.1-0.1-0.2-0.1-0.3c-0.1-0.3-0.2-0.6-0.3-0.9c0-0.1-0.1-0.2-0.1-0.3
					C202.9,136.1,202.8,136,202.8,136z"/>
			</g>
			<g>
				<path class="st8" d="M202.6,127.9l-0.1-1.8c0-0.1,0.2-0.1,0.2,0C202.7,126.2,202.6,127.9,202.6,127.9z"/>
				<path class="st8" d="M202.4,128.1c-0.3-0.1-0.6-0.2-0.9-0.3c-0.1,0-0.2,0-0.2-0.1c0,0,0-0.1,0-0.1s0-0.1,0.1-0.1
					c0.1,0,0.2,0.1,0.2,0.1c0.1,0,0.2,0.1,0.2,0.1c0.2,0.1,0.3,0.2,0.5,0.3C202.3,128,202.3,128.1,202.4,128.1z"/>
				<path class="st8" d="M202.4,128.1c-0.1,0-0.2,0-0.2,0c-0.2,0-0.3-0.1-0.5-0.1c-0.1,0-0.2,0-0.3,0c-0.1,0-0.1,0-0.1-0.1
					c0-0.1,0.2,0,0.3,0c0.1,0,0.3,0.1,0.4,0.1C202.1,128,202.2,128.1,202.4,128.1z"/>
				<path class="st8" d="M202.5,128.4c-0.1,0.1-0.1,0.1-0.2,0.2c-0.1,0.1-0.3,0.3-0.4,0.4c-0.1,0.1-0.2,0.2-0.3,0.3
					c0,0-0.1,0.1-0.2,0.1c-0.1-0.1,0.1-0.2,0.2-0.3c0.1-0.1,0.1-0.1,0.2-0.1c0.2-0.1,0.3-0.3,0.4-0.4
					C202.3,128.5,202.3,128.5,202.5,128.4C202.4,128.4,202.4,128.4,202.5,128.4z"/>
				<path class="st8" d="M202.4,128.2c-0.1,0-0.2,0-0.2,0.1c-0.2,0-0.3,0.1-0.5,0.1c-0.1,0-0.2,0.1-0.3,0.1c0,0-0.1,0-0.1-0.1
					c0-0.1,0.1-0.1,0.2-0.1c0.1,0,0.1,0,0.2,0c0.1,0,0.3,0,0.4,0C202.1,128.3,202.3,128.3,202.4,128.2z"/>
				<path class="st8" d="M202.4,128.4c-0.1,0.1-0.1,0.1-0.2,0.2c-0.1,0.1-0.3,0.2-0.4,0.3c-0.1,0.1-0.2,0.2-0.3,0.2
					c-0.1,0.1-0.1,0.1-0.2,0c-0.1-0.1,0.1-0.2,0.2-0.2c0.1,0,0.1-0.1,0.2-0.1c0.2-0.1,0.3-0.2,0.5-0.3
					C202.2,128.5,202.3,128.4,202.4,128.4C202.3,128.4,202.4,128.4,202.4,128.4z"/>
				<path class="st8" d="M202.4,128.3c-0.1,0-0.2,0.1-0.2,0.1c-0.2,0.1-0.3,0.2-0.5,0.2c-0.1,0.1-0.2,0.1-0.3,0.2c0,0-0.1,0-0.1-0.1
					c0-0.1,0.1-0.1,0.2-0.1c0.1,0,0.1,0,0.2-0.1c0.2-0.1,0.4-0.1,0.5-0.2C202.2,128.4,202.3,128.3,202.4,128.3
					C202.3,128.3,202.4,128.3,202.4,128.3z"/>
				<path class="st8" d="M202.5,128.4c-0.1,0.1-0.1,0.2-0.2,0.3c-0.1,0.2-0.2,0.4-0.3,0.5c-0.1,0.1-0.1,0.2-0.2,0.4
					c0,0-0.1,0.1-0.1,0c-0.1-0.1,0-0.2,0.1-0.2c0.1-0.1,0.1-0.1,0.2-0.2c0.1-0.2,0.3-0.3,0.4-0.5
					C202.3,128.6,202.4,128.5,202.5,128.4C202.4,128.5,202.5,128.4,202.5,128.4z"/>
				<path class="st8" d="M202.4,128.2c-0.2,0-0.4,0-0.6,0.1c-0.1,0-0.2,0-0.3,0c-0.1,0-0.2,0.1-0.2-0.1c0-0.1,0-0.1,0.1-0.1
					c0.2,0,0.3,0,0.5,0C202,128.1,202.2,128.2,202.4,128.2C202.4,128.2,202.3,128.2,202.4,128.2z"/>
				<path class="st8" d="M202.4,128c-0.3-0.2-0.7-0.4-1-0.6c0,0,0,0,0,0c0,0,0,0,0,0c0,0,0-0.1,0-0.1c0.1-0.1,0.2,0.1,0.3,0.1
					c0.1,0.1,0.1,0.1,0.2,0.2C202,127.7,202.2,127.9,202.4,128z"/>
				<path class="st8" d="M202.5,128c-0.3-0.4-0.6-0.8-0.9-1.2c0,0-0.1-0.1,0-0.1c0,0,0.1-0.1,0.1,0c0,0,0.1,0.1,0.1,0.1
					c0,0.1,0.1,0.1,0.1,0.2c0.1,0.1,0.1,0.2,0.2,0.3C202.2,127.4,202.3,127.6,202.5,128C202.5,127.9,202.5,127.9,202.5,128z"/>
				<path class="st8" d="M202.4,128c-0.2-0.2-0.4-0.4-0.5-0.5c-0.1-0.1-0.2-0.2-0.3-0.3c-0.1-0.1-0.2-0.2-0.2-0.2c0,0,0-0.1,0.1-0.1
					c0,0,0,0,0.1,0c0.1,0,0.1,0.1,0.1,0.2c0.1,0.1,0.1,0.1,0.2,0.2c0.1,0.1,0.2,0.3,0.3,0.4C202.3,127.8,202.4,127.9,202.4,128z"/>
				<path class="st8" d="M202.5,128c-0.1-0.3-0.2-0.5-0.3-0.8c-0.1-0.1-0.1-0.2-0.2-0.4c0-0.1,0-0.1-0.1-0.2c0-0.1-0.1-0.1-0.1-0.2
					c0-0.1,0-0.1,0.1-0.1c0.1,0,0.1,0.1,0.1,0.1c0.1,0.4,0.3,0.8,0.4,1.2C202.5,127.8,202.5,127.9,202.5,128z"/>
				<path class="st8" d="M202.9,128.3l1,0.8c0.1,0.1,0,0.2-0.1,0.1C203.7,129.3,202.9,128.3,202.9,128.3z"/>
				<path class="st8" d="M202.9,128.3l1,0.6c0.1,0,0,0.2-0.1,0.1C203.8,129.1,202.9,128.3,202.9,128.3z"/>
				<path class="st8" d="M202.7,127.9l0.3-1.6c0-0.1,0.2-0.1,0.1,0C203.1,126.3,202.7,127.9,202.7,127.9z"/>
				<path class="st8" d="M202.9,128.3l1,0.4c0.1,0.1,0,0.2-0.1,0.2C203.9,128.8,202.9,128.3,202.9,128.3z"/>
				<path class="st8" d="M202.8,127.9l0.5-1.4c0-0.1,0.2,0,0.2,0.1C203.4,126.5,202.8,127.9,202.8,127.9z"/>
				<path class="st8" d="M202.8,128l0.9-1.1c0.1-0.1,0.2,0,0.1,0.1C203.8,127.1,202.8,128,202.8,128z"/>
				<path class="st8" d="M202.9,128.1c0.2,0,0.5,0,0.7,0c0.1,0,0.1,0,0.2,0c0,0,0.1,0,0.1,0c0,0,0,0.1,0,0.1c0,0.1-0.1,0-0.2,0
					c-0.1,0-0.1,0-0.2,0c-0.1,0-0.3,0-0.4-0.1c-0.1,0-0.2,0-0.3,0C203,128.2,203,128.2,202.9,128.1z"/>
				<path class="st8" d="M202.8,128l1-0.8c0.1,0,0.2,0.1,0.1,0.1C203.9,127.4,202.8,128,202.8,128z"/>
				<path class="st8" d="M202.9,128l1-0.5c0.1,0,0.2,0.1,0.1,0.2C204,127.7,202.9,128,202.9,128z"/>
				<path class="st8" d="M202.9,128.1l1.1-0.3c0.1,0,0.1,0.2,0,0.2C204,128,202.9,128.1,202.9,128.1z"/>
				<path class="st8" d="M202.8,127.9l0.8-1.2c0-0.1,0.2,0,0.1,0.1C203.7,126.8,202.8,127.9,202.8,127.9z"/>
				<path class="st8" d="M202.9,128.2l1.1,0.2c0.1,0,0,0.2,0,0.2C203.9,128.6,202.9,128.2,202.9,128.2z"/>
				<path class="st8" d="M202.6,128.4c0,0.1-0.1,0.2-0.1,0.3c-0.1,0.2-0.2,0.4-0.2,0.6c-0.1,0.1-0.1,0.3-0.2,0.4
					c0,0.1-0.1,0.1-0.1,0.1c-0.1-0.1,0-0.2,0-0.3c0-0.1,0.1-0.2,0.1-0.2c0.1-0.2,0.2-0.4,0.3-0.6
					C202.4,128.7,202.5,128.6,202.6,128.4C202.5,128.5,202.6,128.5,202.6,128.4z"/>
				<path class="st8" d="M202.6,128.5c0,0.1,0,0.2,0,0.3c0,0.2-0.1,0.4-0.1,0.7c0,0.2,0,0.3-0.1,0.5c0,0.1-0.1,0.1-0.1,0.1
					c-0.1,0,0-0.2,0-0.3c0-0.1,0-0.2,0.1-0.3c0.1-0.2,0.1-0.5,0.2-0.7C202.5,128.8,202.5,128.7,202.6,128.5
					C202.6,128.6,202.6,128.6,202.6,128.5z"/>
				<path class="st8" d="M202.7,128.5c0,0.1,0.1,0.2,0.1,0.4c0.1,0.2,0.1,0.5,0.2,0.7c0,0.2,0.1,0.3,0.1,0.5c0,0.1,0,0.1-0.1,0.1
					c-0.1,0-0.1-0.2-0.1-0.2c0-0.1,0-0.2,0-0.3c0-0.3,0-0.5-0.1-0.8c0-0.1,0-0.2,0-0.3C202.7,128.5,202.7,128.5,202.7,128.5z"/>
				<path class="st8" d="M202.8,128.4c0.1,0.1,0.1,0.2,0.2,0.3c0.1,0.2,0.2,0.3,0.4,0.5c0.1,0.1,0.2,0.2,0.3,0.3c0,0,0,0.1,0,0.1
					c-0.1,0.1-0.1-0.1-0.2-0.2c0-0.1-0.1-0.1-0.1-0.2c-0.1-0.2-0.2-0.4-0.3-0.6C202.9,128.6,202.9,128.6,202.8,128.4
					C202.8,128.5,202.8,128.4,202.8,128.4z"/>
				<path class="st8" d="M202.6,128.4l0.1,1.8c0,0.1-0.2,0.1-0.2,0C202.5,130.2,202.6,128.4,202.6,128.4z"/>
				<ellipse class="st8" cx="202.6" cy="128.2" rx="0.1" ry="0.2"/>
				<path class="st8" d="M202.6,127.9l-0.4-1.6c0-0.1,0.1-0.2,0.2,0C202.4,126.3,202.6,127.9,202.6,127.9z"/>
				<path class="st8" d="M202.8,128.5c0,0.1,0.1,0.2,0.1,0.3c0.1,0.2,0.2,0.4,0.3,0.6c0.1,0.1,0.1,0.3,0.2,0.4c0,0.1,0,0.1,0,0.1
					c-0.1,0-0.1-0.1-0.2-0.2c0-0.1-0.1-0.2-0.1-0.3c-0.1-0.2-0.1-0.5-0.2-0.7C202.9,128.7,202.8,128.6,202.8,128.5
					C202.8,128.5,202.8,128.5,202.8,128.5z"/>
			</g>
		</g>
		<text transform="matrix(1 0 0 1 169.1635 188.3335)"><tspan x="0" y="0" class="st4 st9 st10">HO</tspan><tspan x="20.7" y="0" class="st4 st9 st10">‘</tspan><tspan x="24" y="0" class="st4 st9 st10">OKAHI</tspan></text>
		<text transform="matrix(1 0 0 1 192.2544 197.0034)"><tspan x="0" y="0" class="st4 st11 st12">H</tspan><tspan x="5.3" y="0" class="st4 st11 st12">awa</tspan><tspan x="17.5" y="0" class="st4 st11 st12">i</tspan><tspan x="19.4" y="0" class="st4 st11 st12">‘</tspan><tspan x="21.4" y="0" class="st4 st11 st12">i</tspan></text>
	</g>
</g>
<path class="st13" d="M-188-59l4.1-11.2c0.2-0.7,1.6-0.3,1.2,0.5C-182.7-69.6-188-59-188-59z"/>
<rect x="63.8" y="241.4" class="st14" width="277.9" height="124.1"/>
<text transform="matrix(1 0 0 1 63.8068 253.9785)"><tspan x="0" y="0" class="st15 st16">I put 7 ‘opihis as 7 chakras which is a </tspan><tspan x="0" y="25.2" class="st15 st16">core term in yoga. The real color of </tspan><tspan x="0" y="50.4" class="st15 st16">chakras is not like this. In Ho‘okahi </tspan><tspan x="0" y="75.6" class="st15 st16">Hawai’i, the aim is to be one with fun, </tspan><tspan x="0" y="100.8" class="st15 st16">so  I put with more fun colors. </tspan></text>
</svg>
